<?xml version="1.0" encoding="utf-8"?>
<!-- Generator: Adobe Illustrator 22.0.1, SVG Export Plug-In . SVG Version: 6.00 Build 0)  -->
<svg version="1.1" id="Слой_2" xmlns="http://www.w3.org/2000/svg" xmlns:xlink="http://www.w3.org/1999/xlink" x="0px" y="0px"
	 viewBox="0 0 20 20" style="enable-background:new 0 0 20 20;" xml:space="preserve">
<style type="text/css">
	.st0{fill:#BABABA;}
</style>
<g>
	<path class="st0" d="M13.5,10h-2.2v8.8c0,0.1-0.1,0.2-0.2,0.2H7.9c-0.1,0-0.2-0.1-0.2-0.2V10H6.1C6,10,5.8,9.9,5.8,9.7V7.1
		c0-0.1,0.1-0.3,0.3-0.3h1.5v-2C7.6,3.3,8.3,1,11.4,1h2.5c0.1,0,0.3,0.1,0.3,0.3v2.6c0,0.1-0.1,0.3-0.3,0.3h-1.7
		c-0.3,0-0.8,0.2-0.8,0.9v1.9h2.5c0.2,0,0.3,0.1,0.3,0.3l-0.3,2.6C13.8,9.9,13.7,10,13.5,10z"/>
</g>
</svg>
