<?xml version="1.0" encoding="utf-8"?>
<!-- Generator: Adobe Illustrator 22.0.1, SVG Export Plug-In . SVG Version: 6.00 Build 0)  -->
<svg version="1.1" id="Capa_1" xmlns="http://www.w3.org/2000/svg" xmlns:xlink="http://www.w3.org/1999/xlink" x="0px" y="0px"
	 viewBox="0 0 20 20" style="enable-background:new 0 0 20 20;" xml:space="preserve">
<style type="text/css">
	.st0{fill:#BABABA;}
</style>
<g>
	<g>
		<path class="st0" d="M17.8,11.7v5.7h-3.3v-5.3c0-1.3-0.5-2.3-1.7-2.3c-0.9,0-1.5,0.6-1.7,1.2c-0.1,0.2-0.1,0.5-0.1,0.8v5.6H7.6
			c0,0,0-9.1,0-10h3.3v1.4l0,0h0v0c0.4-0.7,1.2-1.7,3-1.7C16.1,7.2,17.8,8.6,17.8,11.7L17.8,11.7z M4.1,2.6C3,2.6,2.2,3.3,2.2,4.3
			c0,1,0.7,1.7,1.8,1.7h0C5.3,6.1,6,5.3,6,4.3C6,3.3,5.2,2.6,4.1,2.6L4.1,2.6z M2.4,17.4h3.3v-10H2.4V17.4z"/>
	</g>
</g>
</svg>
