<?xml version="1.0" encoding="utf-8"?>
<!-- Generator: Adobe Illustrator 24.1.1, SVG Export Plug-In . SVG Version: 6.00 Build 0)  -->
<svg version="1.1" id="Layer_1" xmlns="http://www.w3.org/2000/svg" xmlns:xlink="http://www.w3.org/1999/xlink" x="0px" y="0px"
	 viewBox="0 0 80 80" style="enable-background:new 0 0 80 80;" xml:space="preserve">
<style type="text/css">
	.st0{fill:#B3B3B3;}
	.st1{fill:#A6120D;}
	.st2{fill:#DD1B16;}
	.st3{fill:#F2F2F2;}
</style>
<path class="st0" d="M40.4,9.3L11.5,19.4L16,57.3l24.4,13.4l24.5-13.6l4.6-37.9L40.4,9.3z"/>
<path class="st1" d="M66.6,21.5l-26.3-9v55l22-12.2L66.6,21.5L66.6,21.5z"/>
<path class="st2" d="M14.7,21.6l3.9,33.9l21.7,12v-55L14.7,21.6L14.7,21.6z"/>
<path class="st3" d="M47.5,41.8l-7.2,3.4h-7.6l-3.6,9l-6.7,0.1l17.9-39.8L47.5,41.8L47.5,41.8z M46.8,40.1l-6.5-12.8L35,39.9h5.3
	L46.8,40.1L46.8,40.1z"/>
<path class="st0" d="M40.3,14.5l0,12.8l6,12.6h-6.1l0,5.3l8.4,0l3.9,9.1l6.4,0.1L40.3,14.5L40.3,14.5z"/>
</svg>
