<?xml version="1.0" encoding="utf-8"?>
<!-- Generator: Adobe Illustrator 24.1.1, SVG Export Plug-In . SVG Version: 6.00 Build 0)  -->
<svg version="1.1" id="Layer_1" xmlns="http://www.w3.org/2000/svg" xmlns:xlink="http://www.w3.org/1999/xlink" x="0px" y="0px"
	 viewBox="0 0 80 80" style="enable-background:new 0 0 80 80;" xml:space="preserve">
<style type="text/css">
	.st0{fill:#F7DF1E;}
</style>
<path class="st0" d="M14.3,14.3h51.5v51.5H14.3V14.3z"/>
<path d="M27.8,57.3l3.9-2.4c0.8,1.3,1.5,2.5,3.1,2.5c1.6,0,2.6-0.6,2.6-3V37.9h4.8v16.5c0,5-2.9,7.3-7.2,7.3
	C31.2,61.7,28.9,59.7,27.8,57.3 M44.9,56.8l3.9-2.3c1,1.7,2.4,2.9,4.8,2.9c2,0,3.3-1,3.3-2.4c0-1.7-1.3-2.2-3.5-3.2l-1.2-0.5
	c-3.5-1.5-5.8-3.4-5.8-7.3c0-3.6,2.8-6.4,7.1-6.4c3.1,0,5.3,1.1,6.9,3.9l-3.8,2.4c-0.8-1.5-1.7-2.1-3.1-2.1c-1.4,0-2.3,0.9-2.3,2.1
	c0,1.5,0.9,2,3,2.9l1.2,0.5c4.1,1.8,6.4,3.6,6.4,7.6c0,4.4-3.4,6.7-8,6.7C49.2,61.7,46.3,59.6,44.9,56.8"/>
</svg>
