<?xml version="1.0" encoding="utf-8"?>
<!-- Generator: Adobe Illustrator 24.1.1, SVG Export Plug-In . SVG Version: 6.00 Build 0)  -->
<svg version="1.1" id="Layer_1" xmlns="http://www.w3.org/2000/svg" xmlns:xlink="http://www.w3.org/1999/xlink" x="0px" y="0px"
	 viewBox="0 0 80 80" style="enable-background:new 0 0 80 80;" xml:space="preserve">
<style type="text/css">
	.st0{fill-rule:evenodd;clip-rule:evenodd;fill:url(#a_1_);}
	.st1{fill-rule:evenodd;clip-rule:evenodd;fill:#FAF9F8;}
	.st2{fill:url(#SVGID_1_);}
	.st3{fill:url(#SVGID_2_);}
	
		.st4{display:none;fill-rule:evenodd;clip-rule:evenodd;fill:#FAF9F8;stroke:url(#SVGID_3_);stroke-width:0.1;stroke-linecap:round;stroke-linejoin:round;stroke-miterlimit:10;}
	.st5{display:none;}
	.st6{display:inline;fill-rule:evenodd;clip-rule:evenodd;fill:#666666;}
</style>
<g id="Layer_1_1_">
	<g transform="translate(16)">
		<g>
			
				<linearGradient id="a_1_" gradientUnits="userSpaceOnUse" x1="-2184.0698" y1="499.1274" x2="-2184.0698" y2="499.158" gradientTransform="matrix(2187.2009 0 0 1064.3048 4777023.5 -531200.4375)">
				<stop  offset="0" style="stop-color:#2E4F82"/>
				<stop  offset="1" style="stop-color:#182E4D"/>
			</linearGradient>
			<path id="a" class="st0" d="M58.5,49.5c0,3.4-2.9,6.3-6.4,6.3h-56c-3.5,0-6.4-2.8-6.4-6.3v-20c0-3.4,2.9-6.3,6.4-6.3h56
				c3.5,0,6.4,2.8,6.4,6.3V49.5"/>
		</g>
		<path class="st1" d="M31.2,38.9c-1.9-0.8-3.7-1.2-3.7-2.4c0-0.9,0.8-1.5,2.1-1.5s2.6,0.6,4,1.6l2.5-3.3c-1.6-1.2-3.7-2.4-6.6-2.4
			c-4.3,0-7.1,2.4-7.1,5.9c0,3.1,2.7,4.6,5,5.5c1.9,0.8,3.8,1.4,3.8,2.6c0,0.9-0.8,1.6-2.4,1.6s-3.1-0.6-4.8-1.9l-2.4,3.6
			c1.9,1.6,4.8,2.6,7.1,2.6c5,0,7.7-2.6,7.7-6.1C36.4,41.2,33.7,39.7,31.2,38.9 M46.4,38.9c-1.9-0.8-3.6-1.2-3.6-2.4
			c0-0.9,0.8-1.5,2.1-1.5c1.4,0,2.6,0.6,4,1.6l2.5-3.3c-1.6-1.2-3.7-2.4-6.6-2.4c-4.3,0-7.1,2.4-7.1,5.9c0,3.1,2.7,4.6,5,5.5
			c1.9,0.8,3.8,1.4,3.8,2.6c0,0.9-0.8,1.6-2.4,1.6c-1.6,0-3.1-0.6-4.8-1.9l-2.5,3.6c1.9,1.6,4.8,2.6,7.1,2.6c5,0,7.7-2.6,7.7-6.1
			C51.5,41.2,48.8,39.7,46.4,38.9 M9.1,38.6c0.4-2.5,1.9-3.7,3.6-3.7c2.3,0,3.1,1.6,3.1,3.7H9.1L9.1,38.6z M20.7,39.7
			c0.1-5.1-2.7-9-8-9c-4.6,0-9,3.8-8.8,9.8c0,6.2,4.1,9.8,9.5,9.8c2.3,0,4.8-0.8,6.7-2.1l-1.9-3.3c-1.4,0.8-2.7,1.2-4.1,1.2
			c-2.5,0-4.5-1.2-5-4.1h11.3C20.6,41.6,20.7,40.7,20.7,39.7L20.7,39.7z"/>
		<g>
			<path class="st1" d="M-3.9,23.3h-2.4c-3.4,0-4.9,1.2-4.9,5.3c0,2.7,0.4,4.2,0.4,6.5c0,1.3-0.8,2.7-3.3,2.8v3.3
				c2.4,0.1,3.3,1.4,3.3,2.8c0,2.3-0.4,3.7-0.4,6.4c0,4.1,1.5,5.4,4.8,5.4H-4v-2.9h-0.8c-1.6,0-2.1-0.6-2.1-2.7
				c0-2.1,0.2-3.8,0.2-6.1c0-2.9-0.9-4-2.8-4.5v-0.2c1.9-0.4,2.8-1.6,2.8-4.5c0-2.3-0.2-4.1-0.2-6.1s0.4-2.6,2.1-2.6h0.9v-1.5
				L-3.9,23.3z"/>
			<linearGradient id="SVGID_1_" gradientUnits="userSpaceOnUse" x1="2.5723" y1="34.5104" x2="-15.6732" y2="45.0445">
				<stop  offset="0" style="stop-color:#2E4F82"/>
				<stop  offset="1" style="stop-color:#182E4D"/>
			</linearGradient>
			<path class="st2" d="M-4,23.4v1.3v1.4h-0.8c-1.7,0-2.2,0.6-2.2,2.7c0,1,0,1.9,0.1,2.8c0.1,1,0.1,2.1,0.1,3.3c0,2.7-0.8,4-2.7,4.4
				c0,0-0.1,0.1-0.1,0.1v0.2c0,0,0,0.1,0.1,0.1c2,0.5,2.7,1.7,2.7,4.4c0,1.2-0.1,2.2-0.1,3.2c0,1-0.1,1.9-0.1,2.9
				c0,2.1,0.5,2.8,2.2,2.8h0.7v2.7h-2.3c-3.4,0-4.7-1.4-4.7-5.3c0-1.4,0.1-2.4,0.2-3.5c0.1-0.9,0.2-1.8,0.2-2.9
				c0-1.7-1.2-2.8-3.3-2.9V38c3.1-0.2,3.3-2.3,3.3-2.9c0-1.1-0.1-2-0.2-3c-0.1-1-0.2-2.1-0.2-3.5c0-3.8,1.3-5.2,4.8-5.2H-4
				 M-3.9,23.3h-2.4c-3.4,0-4.9,1.2-4.9,5.3c0,2.7,0.4,4.2,0.4,6.5c0,1.3-0.8,2.7-3.3,2.8v3.3c2.4,0.1,3.3,1.4,3.3,2.8
				c0,2.3-0.4,3.7-0.4,6.4c0,4.1,1.5,5.4,4.8,5.4H-4v-2.9h-0.8c-1.6,0-2.1-0.6-2.1-2.7c0-2.1,0.2-3.8,0.2-6.1c0-2.9-0.9-4-2.8-4.5
				v-0.2c1.9-0.4,2.8-1.6,2.8-4.5c0-2.3-0.2-4.1-0.2-6.1s0.4-2.6,2.1-2.6h0.9v-1.5V23.3L-3.9,23.3z"/>
		</g>
		<g>
			<path class="st1" d="M52.1,24.7v1.5H53c1.7,0,2.1,0.6,2.1,2.6S55,32.6,55,34.9c0,2.9,0.9,4.1,2.8,4.5v0.2
				c-1.9,0.5-2.8,1.6-2.8,4.5c0,2.3,0.2,4,0.2,6.1c0,2.1-0.5,2.7-2.1,2.7h-0.8v2.9h2.4c3.3,0,4.8-1.3,4.8-5.4c0-2.7-0.4-4.1-0.4-6.4
				c0-1.4,0.9-2.7,3.3-2.8v-3.3c-2.5-0.1-3.3-1.5-3.3-2.8c0-2.3,0.4-3.8,0.4-6.5c0-4.1-1.5-5.3-4.9-5.3h-2.4L52.1,24.7z"/>
			<linearGradient id="SVGID_2_" gradientUnits="userSpaceOnUse" x1="45.6777" y1="34.5104" x2="63.9232" y2="45.0445">
				<stop  offset="0" style="stop-color:#2E4F82"/>
				<stop  offset="1" style="stop-color:#182E4D"/>
			</linearGradient>
			<path class="st3" d="M54.6,23.4c3.5,0,4.8,1.4,4.8,5.2c0,1.4-0.1,2.5-0.2,3.5c-0.1,1-0.2,1.9-0.2,3c0,0.6,0.2,2.7,3.3,2.9v3.1
				c-2.1,0.1-3.3,1.2-3.3,2.9c0,1.1,0.1,2,0.2,2.9c0.1,1,0.2,2.1,0.2,3.5c0,3.9-1.3,5.3-4.7,5.3h-2.3V53h0.7c1.7,0,2.2-0.7,2.2-2.8
				c0-1,0-1.9-0.1-2.9c-0.1-1-0.1-2-0.1-3.2c0-2.7,0.7-3.9,2.7-4.4c0,0,0.1-0.1,0.1-0.1v-0.2c0,0,0-0.1-0.1-0.1
				c-1.9-0.4-2.7-1.7-2.7-4.4c0-1.2,0.1-2.2,0.1-3.3c0-1,0.1-1.9,0.1-2.8c0-2.1-0.5-2.7-2.2-2.7h-0.8v-1.4v-1.3H54.6 M54.6,23.3
				h-2.4v1.4v1.5h0.9c1.7,0,2.1,0.6,2.1,2.6s-0.2,3.8-0.2,6.1c0,2.9,0.9,4.1,2.8,4.5v0.2c-1.9,0.5-2.8,1.6-2.8,4.5
				c0,2.3,0.2,4,0.2,6.1c0,2.1-0.5,2.7-2.1,2.7h-0.8v2.9h2.4c3.3,0,4.8-1.3,4.8-5.4c0-2.7-0.4-4.1-0.4-6.4c0-1.4,0.9-2.7,3.3-2.8
				v-3.3c-2.5-0.1-3.3-1.5-3.3-2.8c0-2.3,0.4-3.8,0.4-6.5C59.4,24.5,57.9,23.3,54.6,23.3L54.6,23.3z"/>
		</g>
		<linearGradient id="SVGID_3_" gradientUnits="userSpaceOnUse" x1="63.956" y1="33.999" x2="45.6123" y2="44.5897">
			<stop  offset="0" style="stop-color:#2E4F82"/>
			<stop  offset="1" style="stop-color:#182E4D"/>
		</linearGradient>
		<path class="st4" d="M59,35.1c0-2.4,0.4-3.9,0.4-6.5c0-4.1-1.5-5.4-4.8-5.4h-2.4v2.9H53c1.7,0,2.1,0.6,2.1,2.6
			c0,1.9-0.2,3.9-0.2,6.1c0,2.9,0.9,4,2.8,4.5v0.2c-1.9,0.4-2.8,1.6-2.8,4.5c0,2.3,0.2,4.1,0.2,6.1c0,2.1-0.4,2.7-2.1,2.7v0.1h-0.8
			v3h2.4c3.3,0,4.8-1.3,4.8-5.4c0-2.7-0.4-4.1-0.4-6.5c0-1.3,0.8-2.7,3.3-2.8v-3.3C59.8,37.8,59,36.4,59,35.1"/>
		<path class="st1" d="M3.6,46c-0.4,0-1-0.4-1-1.6V23.3H-3v2.9v18c0,3.8,1.3,6.3,5.1,6.3c1.2,0,2.1-0.2,2.8-0.4L4.3,46
			C3.9,46,3.8,46,3.6,46"/>
	</g>
</g>
<g id="Layer_2_1_" class="st5">
	<path class="st6" d="M13,23.1H9.7c-3.4,0-5,1.4-5,5.3c0,2.7,0.4,4.3,0.4,6.6c0,1.3-0.7,2.6-3.2,2.8v3.5C4.3,41.4,5,42.6,5,43.9
		c0,2.4-0.4,3.8-0.4,6.5c0,4.1,1.6,5.6,5,5.6H12v-2.9h-0.8c-1.6,0-2.1-0.6-2.1-2.7c0-2.1,0.2-3.9,0.2-6.2c0-2.9-1-4.1-2.9-4.5v-0.2
		c1.9-0.4,2.9-1.6,2.9-4.5c0-2.3-0.2-4.1-0.2-6.2S9.6,26,11.3,26h0.9l0.8-1.6"/>
</g>
</svg>
