<?xml version="1.0" encoding="utf-8"?>
<!-- Generator: Adobe Illustrator 24.1.1, SVG Export Plug-In . SVG Version: 6.00 Build 0)  -->
<svg version="1.1" id="Layer_1" xmlns="http://www.w3.org/2000/svg" xmlns:xlink="http://www.w3.org/1999/xlink" x="0px" y="0px"
	 viewBox="0 0 80 80" style="enable-background:new 0 0 80 80;" xml:space="preserve">
<style type="text/css">
	.st0{fill-rule:evenodd;clip-rule:evenodd;fill:#9BAEDD;}
	.st1{fill-rule:evenodd;clip-rule:evenodd;fill:#191B23;}
</style>
<g>
	<ellipse class="st0" cx="40" cy="40" rx="37.7" ry="19.6"/>
	<path class="st1" d="M14.2,50.3L18,31.1h8.8c3.8,0.2,5.7,2.1,5.7,5.5c0,5.7-4.5,9-8.5,8.8h-4.3l-0.9,5H14.2z M20.6,41.8l1.2-7.1
		h3.1c1.7,0,2.8,0.7,2.8,2.1c-0.2,4-2.1,4.7-4.3,5H20.6L20.6,41.8z M32.6,45.3l3.8-19.2h4.5l-0.9,5h4.3c3.8,0.2,5.2,2.1,4.7,4.5
		l-1.7,9.7h-4.7l1.7-8.8c0.2-1.2,0.2-1.9-1.4-1.9h-3.6l-2.1,10.7H32.6z M48,50.3l3.8-19.2h8.8c3.8,0.2,5.7,2.1,5.7,5.5
		c0,5.7-4.5,9-8.5,8.8h-4.3l-0.9,5H48z M54.4,41.8l1.2-7.1h3.1c1.7,0,2.8,0.7,2.8,2.1c-0.2,4-2.1,4.7-4.3,5H54.4L54.4,41.8z"/>
</g>
</svg>
