<?xml version="1.0" encoding="utf-8"?>
<!-- Generator: Adobe Illustrator 24.1.1, SVG Export Plug-In . SVG Version: 6.00 Build 0)  -->
<svg version="1.1"
	 id="svg2" inkscape:version="0.43" sodipodi:docbase="/home/sdeibel" sodipodi:docname="logo-python-inkscape.svg" sodipodi:version="0.32" xmlns:cc="http://web.resource.org/cc/" xmlns:dc="http://purl.org/dc/elements/1.1/" xmlns:inkscape="http://www.inkscape.org/namespaces/inkscape" xmlns:rdf="http://www.w3.org/1999/02/22-rdf-syntax-ns#" xmlns:sodipodi="http://inkscape.sourceforge.net/DTD/sodipodi-0.dtd" xmlns:svg="http://www.w3.org/2000/svg"
	 xmlns="http://www.w3.org/2000/svg" xmlns:xlink="http://www.w3.org/1999/xlink" x="0px" y="0px" viewBox="0 0 80.1 80"
	 style="enable-background:new 0 0 80.1 80;" xml:space="preserve">
<style type="text/css">
	.st0{fill:url(#path1948_1_);}
	.st1{fill:url(#path1950_1_);}
</style>
<linearGradient id="path1948_1_" gradientUnits="userSpaceOnUse" x1="673.7352" y1="-2464.1689" x2="728.7642" y2="-2511.5142" gradientTransform="matrix(0.5625 0 0 -0.568 -368.3666 -1386.4061)">
	<stop  offset="0" style="stop-color:#5A9FD4"/>
	<stop  offset="1" style="stop-color:#306998"/>
</linearGradient>
<path id="path1948" class="st0" d="M39.7,11.6c-2.3,0-4.5,0.2-6.5,0.6c-5.7,1-6.8,3.1-6.8,7v5.1H40v1.7H26.5h-5.1
	c-3.9,0-7.4,2.4-8.5,6.9c-1.2,5.2-1.3,8.4,0.1,13.8c1,4,3.3,6.9,7.2,6.9h4.6v-6.2c0-4.4,3.9-8.4,8.4-8.4h13.5c3.8,0,6.8-3.1,6.8-6.9
	V19.2c0-3.7-3.1-6.4-6.8-7C44.4,11.8,42,11.6,39.7,11.6z M32.4,15.8c1.4,0,2.5,1.2,2.5,2.6s-1.2,2.6-2.5,2.6c-1.4,0-2.5-1.2-2.5-2.6
	C29.9,16.9,31,15.8,32.4,15.8z"/>
<linearGradient id="path1950_1_" gradientUnits="userSpaceOnUse" x1="750.0447" y1="-2540.1721" x2="730.394" y2="-2512.3696" gradientTransform="matrix(0.5625 0 0 -0.568 -368.3666 -1386.4061)">
	<stop  offset="0" style="stop-color:#FFD43B"/>
	<stop  offset="1" style="stop-color:#FFE873"/>
</linearGradient>
<path id="path1950" class="st1" d="M55.2,26.1v6c0,4.6-3.9,8.6-8.5,8.6H33.2c-3.7,0-6.8,3.2-6.8,6.9v12.9c0,3.7,3.2,5.8,6.8,6.9
	c4.3,1.3,8.4,1.5,13.5,0c3.4-1,6.8-3,6.8-6.9v-5.1H40v-1.7h13.5h6.8c3.9,0,5.4-2.7,6.8-6.9c1.4-4.2,1.4-8.3,0-13.8
	c-1-3.9-2.8-6.9-6.8-6.9L55.2,26.1L55.2,26.1z M47.6,58.7c1.4,0,2.5,1.2,2.5,2.6c0,1.4-1.2,2.6-2.5,2.6c-1.4,0-2.5-1.2-2.5-2.6
	C45,59.9,46.2,58.7,47.6,58.7z"/>
</svg>
