<?xml version="1.0" encoding="utf-8"?>
<!-- Generator: Adobe Illustrator 24.1.1, SVG Export Plug-In . SVG Version: 6.00 Build 0)  -->
<svg version="1.1" id="Layer_1" xmlns="http://www.w3.org/2000/svg" xmlns:xlink="http://www.w3.org/1999/xlink" x="0px" y="0px"
	 viewBox="0 0 80 80" style="enable-background:new 0 0 80 80;" xml:space="preserve">
<style type="text/css">
	.st0{fill:#53C1DE;}
	.st1{fill:#FFFFFF;}
</style>
<path class="st0" d="M59.9,30.3c-0.7-0.2-1.3-0.4-2-0.6c0.1-0.5,0.2-0.9,0.3-1.4c1.5-7.3,0.5-13.2-2.8-15.1
	c-3.2-1.9-8.5,0.1-13.8,4.7c-0.5,0.5-1,0.9-1.5,1.4c-0.3-0.3-0.7-0.6-1-0.9c-5.6-5-11.2-7-14.5-5.1c-3.2,1.9-4.2,7.4-2.8,14.3
	c0.1,0.7,0.3,1.4,0.5,2c-0.8,0.2-1.6,0.5-2.3,0.7c-6.5,2.3-10.7,5.9-10.7,9.6c0,3.8,4.5,7.7,11.3,10c0.6,0.2,1.1,0.4,1.7,0.5
	c-0.2,0.7-0.3,1.5-0.5,2.2c-1.3,6.8-0.3,12.2,2.9,14.1c3.3,1.9,8.9-0.1,14.3-4.8c0.4-0.4,0.9-0.8,1.3-1.2c0.5,0.5,1.1,1,1.7,1.5
	c5.3,4.5,10.4,6.3,13.7,4.5c3.3-1.9,4.4-7.7,3-14.8c-0.1-0.5-0.2-1.1-0.4-1.7c0.4-0.1,0.8-0.2,1.2-0.4c7.1-2.3,11.7-6.1,11.7-10
	C70.9,36.2,66.6,32.6,59.9,30.3L59.9,30.3z"/>
<path class="st1" d="M58.4,47.5c-0.3,0.1-0.7,0.2-1,0.3c-0.8-2.5-1.8-5.1-3.1-7.8c1.2-2.7,2.2-5.3,3-7.7c0.6,0.2,1.2,0.4,1.8,0.6
	c5.7,2,9.2,4.9,9.2,7.1C68.3,42.3,64.5,45.4,58.4,47.5L58.4,47.5z M55.8,52.5c0.6,3.1,0.7,6,0.3,8.2c-0.4,2-1.1,3.3-2,3.8
	c-1.9,1.1-6.1-0.3-10.6-4.2c-0.5-0.4-1-0.9-1.6-1.4c1.7-1.9,3.5-4.1,5.2-6.6c3-0.3,5.8-0.7,8.4-1.3C55.6,51.5,55.8,52,55.8,52.5
	L55.8,52.5z M30.2,64.3c-1.9,0.7-3.4,0.7-4.3,0.2c-2-1.1-2.8-5.5-1.7-11.3c0.1-0.7,0.3-1.4,0.5-2.1c2.5,0.6,5.3,1,8.3,1.2
	c1.7,2.4,3.5,4.6,5.3,6.6c-0.4,0.4-0.8,0.7-1.2,1.1C34.7,62.1,32.3,63.6,30.2,64.3L30.2,64.3z M21.2,47.5c-3-1-5.5-2.4-7.2-3.8
	c-1.5-1.3-2.3-2.6-2.3-3.7c0-2.3,3.4-5.1,9-7.1c0.7-0.2,1.4-0.5,2.1-0.7c0.8,2.5,1.8,5.1,3,7.8c-1.2,2.7-2.3,5.4-3.1,7.9
	C22.3,47.8,21.7,47.6,21.2,47.5z M24.2,27.1c-1.2-5.9-0.4-10.4,1.6-11.5c2.1-1.2,6.6,0.5,11.5,4.8c0.3,0.3,0.6,0.6,0.9,0.9
	c-1.8,1.9-3.6,4.1-5.3,6.5C30,28,27.2,28.4,24.7,29C24.5,28.4,24.4,27.7,24.2,27.1L24.2,27.1z M50.9,33.7c-0.6-1-1.2-2.1-1.9-3.1
	c2,0.2,3.9,0.6,5.6,1c-0.5,1.7-1.2,3.5-2,5.3C52.1,35.8,51.5,34.7,50.9,33.7L50.9,33.7z M40,23.1c1.2,1.3,2.4,2.8,3.6,4.4
	c-2.4-0.1-4.9-0.1-7.3,0C37.6,25.9,38.8,24.4,40,23.1L40,23.1z M29.1,33.7c-0.6,1.1-1.2,2.1-1.7,3.2c-0.8-1.8-1.4-3.6-2-5.4
	c1.8-0.4,3.6-0.7,5.6-1C30.3,31.6,29.7,32.7,29.1,33.7z M31,49.5c-2-0.2-3.9-0.5-5.7-0.9c0.5-1.8,1.2-3.6,2-5.5
	c0.6,1.1,1.1,2.1,1.8,3.2C29.7,47.4,30.4,48.5,31,49.5z M40.1,57c-1.3-1.4-2.5-2.8-3.7-4.5c1.2,0,2.4,0.1,3.6,0.1
	c1.3,0,2.5,0,3.7-0.1C42.5,54.2,41.3,55.7,40.1,57z M52.7,43c0.8,1.9,1.5,3.7,2.1,5.4c-1.8,0.4-3.7,0.7-5.8,1c0.7-1,1.3-2.1,1.9-3.1
	C51.5,45.2,52.1,44.1,52.7,43L52.7,43z M48.6,45c-0.9,1.6-1.9,3.2-3,4.8C43.8,49.9,41.9,50,40,50s-3.8-0.1-5.6-0.2
	c-1.1-1.6-2.1-3.2-3-4.8c-0.9-1.6-1.8-3.3-2.6-5c0.8-1.7,1.7-3.4,2.6-5l0,0c0.9-1.6,1.9-3.2,3-4.8c1.8-0.1,3.7-0.2,5.6-0.2
	c1.9,0,3.8,0.1,5.6,0.2c1,1.6,2,3.1,3,4.8c0.9,1.6,1.8,3.3,2.7,5C50.5,41.7,49.6,43.3,48.6,45L48.6,45z M54.1,15.5
	c2.1,1.2,2.9,6,1.6,12.3c-0.1,0.4-0.2,0.8-0.3,1.2c-2.6-0.6-5.4-1-8.3-1.3c-1.7-2.4-3.5-4.6-5.2-6.5c0.5-0.4,0.9-0.9,1.4-1.3
	C47.9,15.9,52.1,14.4,54.1,15.5L54.1,15.5z"/>
<path class="st0" d="M40,34.4c3.1,0,5.5,2.5,5.5,5.5c0,3.1-2.5,5.5-5.5,5.5s-5.5-2.5-5.5-5.5S37,34.4,40,34.4"/>
</svg>
