<?xml version="1.0" encoding="utf-8"?>
<!-- Generator: Adobe Illustrator 24.1.1, SVG Export Plug-In . SVG Version: 6.00 Build 0)  -->
<svg version="1.1" id="Layer_1" xmlns="http://www.w3.org/2000/svg" xmlns:xlink="http://www.w3.org/1999/xlink" x="0px" y="0px"
	 viewBox="0 0 80 80" style="enable-background:new 0 0 80 80;" xml:space="preserve">
<style type="text/css">
	.st0{fill:#CF649A;}
</style>
<path class="st0" d="M63.7,42c-2.2,0-4.1,0.5-5.7,1.3c-0.6-1.2-1.2-2.2-1.3-3c-0.1-0.9-0.2-1.4-0.1-2.5c0.1-1.1,0.8-2.6,0.8-2.7
	c0-0.1-0.1-0.7-1.4-0.7c-1.3,0-2.4,0.2-2.5,0.6s-0.4,1.1-0.5,1.9c-0.2,1.2-2.6,5.3-3.9,7.5c-0.4-0.8-0.8-1.6-0.9-2.2
	c-0.1-0.9-0.2-1.4-0.1-2.5c0.1-1.1,0.8-2.6,0.8-2.7c0-0.1-0.1-0.7-1.4-0.7c-1.3,0-2.4,0.2-2.5,0.6c-0.1,0.3-0.3,1.1-0.5,1.9
	c-0.3,0.8-3.4,7.7-4.2,9.4c-0.4,0.9-0.8,1.6-1,2.1c-0.3,0.5,0,0,0,0.1c-0.2,0.4-0.3,0.7-0.3,0.7v0c-0.2,0.3-0.4,0.6-0.4,0.6
	c-0.1,0-0.2-0.8,0-2c0.5-2.4,1.6-6.1,1.6-6.3c0-0.1,0.2-0.7-0.7-1.1c-0.9-0.3-1.2,0.2-1.3,0.2c-0.1,0-0.1,0.2-0.1,0.2s1-4.2-1.9-4.2
	c-1.8,0-4.4,2-5.6,3.8c-0.8,0.4-2.5,1.3-4.3,2.3c-0.7,0.4-1.4,0.8-2.1,1.1l-0.1-0.1c-3.5-3.8-10.1-6.5-9.8-11.5
	c0.1-1.8,0.7-6.7,12.6-12.6c9.7-4.8,17.5-3.5,18.8-0.6c1.9,4.2-4.1,12-14.2,13.2c-3.8,0.4-5.9-1.1-6.4-1.6c-0.5-0.6-0.6-0.6-0.8-0.5
	c-0.3,0.2-0.1,0.7,0,1c0.3,0.8,1.5,2.2,3.6,2.9c1.8,0.6,6.4,0.9,11.8-1.2c6.1-2.4,10.9-8.9,9.5-14.4c-1.4-5.6-10.7-7.4-19.4-4.3
	c-5.2,1.9-10.9,4.8-14.9,8.6c-4.8,4.5-5.6,8.4-5.3,10.1c1.1,5.8,9.2,9.6,12.4,12.4c-0.2,0.1-0.3,0.2-0.4,0.2c-1.6,0.8-7.7,4-9.3,7.4
	c-1.7,3.8,0.3,6.6,1.6,7c4.1,1.2,8.4-0.9,10.7-4.3c2.3-3.4,2-7.8,1-9.8l0-0.1l1.3-0.7c0.8-0.5,1.6-0.9,2.3-1.3
	c-0.4,1.1-0.7,2.4-0.8,4.2c-0.2,2.2,0.7,5,1.9,6.1c0.5,0.5,1.1,0.5,1.5,0.5c1.4,0,2-1.1,2.7-2.5c0.8-1.6,1.6-3.6,1.6-3.6
	s-0.9,5.2,1.6,5.2c0.9,0,1.9-1.2,2.3-1.8v0c0,0,0,0,0.1-0.1c0.1-0.1,0.1-0.2,0.1-0.2v0c0.4-0.6,1.2-2.1,2.4-4.6
	c1.6-3.1,3.1-7.1,3.1-7.1s0.1,1,0.6,2.6c0.3,0.9,0.9,2,1.3,3c-0.4,0.5-0.6,0.8-0.6,0.8l0,0c-0.3,0.4-0.6,0.8-1,1.2
	c-1.3,1.5-2.8,3.2-3,3.7c-0.2,0.6-0.2,1,0.3,1.4c0.3,0.2,0.9,0.3,1.6,0.2c1.1-0.1,1.9-0.4,2.3-0.5c0.6-0.2,1.3-0.6,2-1.1
	c1.2-0.9,2-2.2,1.9-3.9c0-1-0.3-1.9-0.7-2.8c0.1-0.2,0.2-0.3,0.3-0.5c2-2.9,3.5-6,3.5-6s0.1,1,0.6,2.6c0.2,0.8,0.7,1.7,1.1,2.6
	c-1.8,1.5-3,3.2-3.4,4.4c-0.7,2.1-0.2,3.1,0.9,3.3c0.5,0.1,1.2-0.1,1.7-0.3c0.6-0.2,1.4-0.6,2.1-1.1c1.2-0.9,2.4-2.2,2.4-3.9
	c0-0.8-0.2-1.6-0.5-2.3c1.6-0.6,3.6-1,6.1-0.7c5.5,0.6,6.6,4.1,6.4,5.5c-0.2,1.4-1.4,2.2-1.7,2.5c-0.4,0.2-0.5,0.3-0.5,0.5
	c0,0.3,0.2,0.2,0.6,0.2c0.5-0.1,2.9-1.2,3-3.8C72.7,45.6,69.4,41.9,63.7,42L63.7,42z M21.2,56.3c-1.8,2-4.4,2.7-5.5,2.1
	c-1.2-0.7-0.7-3.6,1.5-5.7c1.4-1.3,3.1-2.5,4.3-3.2c0.3-0.2,0.7-0.4,1.1-0.7c0.1,0,0.1-0.1,0.1-0.1c0.1,0,0.2-0.1,0.3-0.2
	C23.9,51.5,23.1,54.2,21.2,56.3L21.2,56.3z M34.5,47.2c-0.6,1.5-2,5.5-2.8,5.3c-0.7-0.2-1.1-3.2-0.1-6.2c0.5-1.5,1.5-3.3,2.2-4
	c1-1.1,2.1-1.5,2.4-1C36.5,42,34.9,46.3,34.5,47.2z M45.5,52.5c-0.3,0.1-0.5,0.2-0.6,0.2c-0.1,0,0.1-0.2,0.1-0.2s1.4-1.5,1.9-2.2
	c0.3-0.4,0.7-0.9,1.1-1.4V49C48,50.8,46.3,52,45.5,52.5L45.5,52.5z M54,50.6c-0.2-0.1-0.2-0.6,0.5-2c0.3-0.6,0.9-1.5,1.9-2.4
	c0.1,0.4,0.2,0.7,0.2,1.1C56.5,49.4,54.9,50.2,54,50.6z"/>
</svg>
