<?xml version="1.0" encoding="utf-8"?>
<!-- Generator: Adobe Illustrator 22.0.1, SVG Export Plug-In . SVG Version: 6.00 Build 0)  -->
<svg version="1.1" id="Layer_1" xmlns="http://www.w3.org/2000/svg" xmlns:xlink="http://www.w3.org/1999/xlink" x="0px" y="0px"
	 viewBox="0 0 23 23" style="enable-background:new 0 0 23 23;" xml:space="preserve">
<style type="text/css">
	.st0{fill:#F0F0F0;}
	.st1{fill:#D80027;}
	.st2{fill:#0052B4;}
</style>
<circle class="st0" cx="11.5" cy="11.5" r="11.5"/>
<g>
	<path class="st1" d="M11,11.5h12c0-1-0.1-2-0.4-3H11V11.5z"/>
	<path class="st1" d="M11,5.5h10.3c-0.7-1.1-1.6-2.2-2.7-3H11V5.5z"/>
	<path class="st1" d="M11.5,23c2.7,0,5.2-0.9,7.2-2.5H4.3C6.3,22.1,8.8,23,11.5,23z"/>
	<path class="st1" d="M1.7,17.5h19.6c0.6-0.9,1-1.9,1.3-3H0.4C0.7,15.6,1.1,16.6,1.7,17.5z"/>
</g>
<path class="st2" d="M5.3,1.8h1l-1,0.7l0.4,1.1l-1-0.7l-1,0.7l0.3-1C3.3,3.4,2.5,4.2,1.9,5.1h0.3L1.6,5.6C1.5,5.8,1.4,5.9,1.4,6.1
	L1.6,7L1.1,6.6C1,6.9,0.8,7.2,0.7,7.5l0.3,1h1.2l-1,0.7l0.4,1.1l-1-0.7l-0.6,0.4C0,10.5,0,11,0,11.5h11.5c0-6.4,0-7.1,0-11.5
	C9.2,0,7.1,0.7,5.3,1.8z M5.8,10.3l-1-0.7l-1,0.7l0.4-1.1l-1-0.7h1.2l0.4-1.1l0.4,1.1h1.2l-1,0.7L5.8,10.3z M5.4,5.9L5.8,7l-1-0.7
	L3.8,7l0.4-1.1l-1-0.7h1.2L4.8,4l0.4,1.1h1.2L5.4,5.9z M9.9,10.3l-1-0.7l-1,0.7l0.4-1.1l-1-0.7h1.2l0.4-1.1l0.4,1.1h1.2l-1,0.7
	L9.9,10.3z M9.5,5.9L9.9,7l-1-0.7L7.9,7l0.4-1.1l-1-0.7h1.2L8.9,4l0.4,1.1h1.2L9.5,5.9z M9.5,2.5l0.4,1.1l-1-0.7l-1,0.7l0.4-1.1
	l-1-0.7h1.2l0.4-1.1l0.4,1.1h1.2L9.5,2.5z"/>
</svg>
